# Blender v2.78 (sub 0) OBJ File: 'right.blend'
# www.blender.org
mtllib rock.mtl
o Plane.001
v -0.338178 0.982540 0.412132
v -0.344145 1.004928 0.140727
v -0.316186 0.832425 0.322733
v 0.022935 1.638365 0.008654
v -0.187626 1.556855 0.000785
v -0.192957 1.533477 0.145753
v -0.165806 0.041551 0.061041
v -0.240115 -0.003123 -0.039178
v -0.126418 0.018118 -0.002877
v -0.236257 0.549791 0.177312
v -0.370726 0.356405 0.027196
v -0.209085 0.387563 0.136430
v -0.742609 -0.018507 -0.372550
v -0.912548 -0.142316 -0.402221
v -0.855388 -0.123354 -0.300371
v -0.194666 0.242549 0.141295
v -0.329971 0.092901 0.092477
v -0.206962 0.113554 0.129906
v 0.195339 0.392945 0.142156
v 0.010558 0.196102 0.134482
v 0.136795 0.250318 0.102270
v 0.208605 0.630110 0.157214
v -0.003337 0.453654 0.151227
v 0.218968 0.514705 0.145163
v -0.135146 -0.099145 -0.010226
v -0.247722 -0.218681 -0.077699
v -0.133870 -0.229741 -0.023355
v 0.099367 -0.125846 0.090643
v -0.022347 -0.240102 0.032495
v 0.088930 -0.250392 0.088499
v 0.120753 0.123951 0.096076
v -0.002746 0.012595 0.042162
v 0.109805 -0.001301 0.092787
v -0.568548 -0.146944 -0.262112
v -0.744463 -0.137173 -0.242156
v -0.615751 -0.152167 -0.150310
v -0.344198 -0.090454 -0.116564
v -0.467459 -0.198943 -0.191519
v -0.356184 -0.209231 -0.135514
v -0.379982 0.090465 -0.097558
v -0.449404 0.036260 -0.171869
v -0.366479 0.002426 -0.117822
v -0.379026 1.375455 0.570036
v -0.363863 1.273103 0.110760
v -0.382757 1.106063 0.466560
v 0.126024 1.345963 0.410738
v -0.033507 1.094989 0.583631
v 0.116588 1.204071 0.406410
v 0.245491 1.617786 0.120661
v -0.114643 1.541651 0.255465
v 0.174926 1.464734 0.261397
v -0.301978 0.756245 0.260349
v -0.399180 0.582932 0.090039
v -0.277785 0.636735 0.217234
v 0.089343 0.815113 0.264105
v -0.030411 0.708163 0.247198
v 0.085896 0.725432 0.211950
v 0.117945 1.075593 0.357756
v -0.006845 0.904947 0.391947
v 0.116995 0.986763 0.335732
v -0.345510 0.972759 -0.116690
v -0.422920 0.824765 -0.174769
v -0.367321 0.801857 -0.107610
v -0.323691 1.225500 -0.113159
v -0.401362 1.076503 -0.171030
v -0.334129 1.100956 -0.115303
v -0.302433 1.474237 -0.109048
v -0.380487 1.325593 -0.166741
v -0.313255 1.350044 -0.111015
v -0.199620 1.658944 -0.103353
v -0.335574 1.555847 -0.161855
v -0.247796 1.568398 -0.106393
v -0.386079 0.327786 -0.082630
v -0.430526 0.297465 -0.184196
v -0.366690 0.191560 -0.044210
v -0.398179 0.656312 -0.091144
v -0.443690 0.553331 -0.191985
v -0.416523 0.502279 -0.107432
v -0.428373 0.420816 -0.187555
v -0.350570 0.233077 0.066950
v -0.381770 0.463776 0.050830
v -0.458226 0.161797 -0.182247
v -0.283834 0.024859 0.028285
v -0.546526 0.184203 -0.238855
v -0.536987 0.309528 -0.238946
v -0.369906 1.450025 -0.164593
v -0.353425 1.397649 0.112904
v -0.088343 1.648655 -0.047350
v -0.390925 1.201047 -0.168886
v -0.366788 1.145990 0.114468
v -0.411799 0.951957 -0.173174
v -0.360020 0.858124 0.097154
v -0.432041 0.702371 -0.177447
v -0.026021 0.778841 0.313736
v 0.304582 0.984771 0.165944
v 0.292291 0.860493 0.164609
v 0.315019 1.109316 0.168088
v -0.023446 0.599481 0.194557
v 0.268675 0.738051 0.168812
v 0.281902 0.613059 0.164875
v -0.127665 1.350015 0.712902
v 0.360202 1.473796 0.189717
v 0.337840 1.357122 0.174508
v 0.358715 1.606212 0.178797
v -0.037749 0.976175 0.447616
v 0.325457 1.233860 0.170233
v -0.455720 -0.158578 -0.202252
v -0.246323 -0.089479 -0.049385
v -0.477897 -0.323488 -0.193664
v -0.366619 -0.333777 -0.137660
v -0.255341 -0.344067 -0.081656
v -0.700452 -0.302908 -0.305671
v -0.589175 -0.313198 -0.249667
v -0.011910 -0.115557 0.034639
v 0.221082 -0.011591 0.148790
v 0.210645 -0.136136 0.146646
v 0.231520 0.112955 0.150935
v -0.032786 -0.364646 0.030350
v 0.078493 -0.374937 0.086354
v 0.200208 -0.260681 0.144502
v 0.189770 -0.385226 0.142358
v -0.144062 -0.354357 -0.025653
v 0.018665 0.318617 0.133471
v 0.277650 0.491467 0.167745
v 0.260396 0.365359 0.162031
v -0.006319 0.119770 0.084366
v 0.241957 0.237500 0.153079
v -0.923007 -0.282329 -0.417678
v -0.811730 -0.292618 -0.361675
v -0.631332 -0.028797 -0.316546
v -0.556658 0.059393 -0.240238
v 0.134213 1.628076 0.064658
v -0.902132 -0.033239 -0.413390
v -0.310898 1.669235 -0.159357
v -0.784651 -0.001150 -0.362721
vn -0.6967 -0.4922 0.5219
vn -0.9982 -0.0561 0.0192
vn -0.6488 -0.4887 0.5833
vn -0.2138 0.8672 0.4497
vn -0.5501 0.7893 0.2729
vn -0.4664 0.8760 0.1229
vn 0.1163 -0.7932 0.5978
vn -0.2901 -0.6092 0.7380
vn -0.1290 -0.5131 0.8486
vn -0.2049 -0.3929 0.8965
vn -0.8672 -0.0993 0.4880
vn -0.2843 -0.1185 0.9514
vn -0.3608 0.4912 0.7928
vn -0.7526 0.2653 0.6027
vn -0.6456 0.3025 0.7012
vn -0.1729 -0.0341 0.9844
vn -0.6321 -0.3942 0.6672
vn -0.0557 -0.3988 0.9154
vn -0.1678 -0.0605 0.9840
vn 0.1934 -0.3262 0.9253
vn -0.0360 -0.2134 0.9763
vn 0.0540 -0.1625 0.9852
vn 0.0610 -0.1748 0.9827
vn -0.1518 -0.0346 0.9878
vn -0.3556 -0.0779 0.9314
vn -0.4417 -0.0802 0.8936
vn -0.4304 -0.0258 0.9023
vn -0.4478 0.0221 0.8939
vn -0.4472 0.0218 0.8942
vn -0.3060 -0.0437 0.9510
vn -0.3382 -0.1540 0.9284
vn -0.4331 0.0127 0.9012
vn -0.2292 0.6699 0.7061
vn -0.3893 0.2272 0.8926
vn -0.1697 0.3933 0.9036
vn -0.5498 -0.0823 0.8313
vn -0.2345 -0.0097 0.9721
vn -0.4726 -0.0452 0.8801
vn -0.8150 -0.2025 0.5429
vn -0.5905 -0.0727 0.8037
vn -0.6225 -0.2499 0.7417
vn -0.7410 0.4055 0.5353
vn -0.9916 0.0530 -0.1180
vn -0.8292 -0.3314 0.4500
vn 0.7299 0.1870 0.6574
vn 0.3766 -0.4968 0.7819
vn 0.7559 -0.1779 0.6301
vn -0.1047 0.7820 0.6144
vn -0.1155 0.9446 0.3072
vn 0.2230 0.6887 0.6899
vn -0.6139 -0.3737 0.6953
vn -0.9189 -0.1353 0.3705
vn -0.3127 -0.4337 0.8451
vn 0.4769 -0.4292 0.7671
vn 0.2228 -0.5451 0.8082
vn 0.3038 -0.3616 0.8814
vn 0.6571 -0.2259 0.7192
vn 0.3397 -0.5097 0.7905
vn 0.5991 -0.2790 0.7505
vn -0.9091 0.0918 0.4064
vn -0.7388 0.0786 0.6694
vn -0.9316 0.1449 0.3334
vn -0.9390 0.0662 0.3376
vn -0.6464 0.0411 0.7619
vn -0.9245 0.0466 0.3783
vn -0.8148 0.3783 0.4394
vn -0.6462 0.0419 0.7621
vn -0.9413 0.0751 0.3290
vn -0.4503 0.1818 0.8742
vn -0.5212 0.1538 0.8395
vn -0.6224 0.3816 0.6834
vn -0.9575 -0.0733 0.2788
vn -0.7262 0.0618 0.6847
vn -0.9439 -0.0491 0.3265
vn -0.9614 0.1273 0.2439
vn -0.9464 0.0063 0.3229
vn -0.9666 -0.0294 0.2548
vn -0.8945 -0.0600 0.4430
vn -0.8039 0.0000 0.5947
vn -0.8466 -0.2060 0.4907
vn -0.6674 0.0533 0.7428
vn -0.3351 -0.8229 0.4589
vn -0.5088 0.0592 0.8588
vn -0.4540 0.0341 0.8903
vn -0.6345 0.1186 0.7637
vn -0.9045 0.4232 -0.0527
vn -0.3742 0.6349 0.6759
vn -0.9935 -0.0697 -0.0897
vn -0.6550 0.0474 0.7542
vn -0.9893 0.0792 0.1228
vn -0.8716 0.1185 0.4758
vn 0.2187 -0.5678 0.7936
vn 0.6077 -0.1362 0.7824
vn 0.4021 -0.1001 0.9101
vn 0.6886 -0.0814 0.7206
vn 0.1192 -0.3342 0.9350
vn 0.1745 -0.0844 0.9810
vn -0.1647 -0.0578 0.9847
vn 0.0961 0.2811 0.9549
vn 0.5077 0.0792 0.8579
vn 0.7415 -0.1606 0.6514
vn 0.0273 0.4773 0.8783
vn 0.3078 -0.5845 0.7508
vn 0.7348 -0.1078 0.6697
vn -0.4237 0.2658 0.8659
vn -0.4395 -0.1116 0.8913
vn -0.4535 0.0168 0.8911
vn -0.4445 0.0040 0.8958
vn -0.4632 -0.4546 0.7608
vn -0.3089 -0.4155 0.8555
vn -0.4064 -0.0122 0.9136
vn -0.4436 0.0201 0.8960
vn -0.4475 0.0206 0.8941
vn 0.0123 -0.0532 0.9985
vn -0.3357 0.0309 0.9415
vn -0.3421 -0.0443 0.9386
vn 0.0572 -0.4736 0.8789
vn -0.4365 0.0079 0.8997
vn -0.6246 -0.2740 0.7313
vn -0.4448 -0.4099 0.7963
vn -0.3687 0.3854 0.8459
vn -0.5709 -0.0148 0.8209
vn -0.1164 0.9362 0.3316
vn -0.2507 0.0320 0.9675
vn -0.4426 0.0766 0.8935
vn -0.1187 -0.6911 0.7129
usemtl rock
s 1
f 1//1 2//2 3//3
f 4//4 5//5 6//6
f 7//7 8//8 9//9
f 10//10 11//11 12//12
f 13//13 14//14 15//15
f 16//16 17//17 18//18
f 19//19 20//20 21//21
f 22//22 23//23 24//24
f 25//25 26//26 27//27
f 28//28 29//29 30//28
f 31//30 32//31 33//32
f 34//33 35//34 36//35
f 37//36 38//37 39//38
f 40//39 41//40 42//41
f 43//42 44//43 45//44
f 46//45 47//46 48//47
f 49//48 50//49 51//50
f 52//51 53//52 54//53
f 55//54 56//55 57//56
f 58//57 59//58 60//59
f 61//60 62//61 63//62
f 64//63 65//64 66//65
f 67//66 68//67 69//68
f 70//69 71//70 72//71
f 73//72 74//73 75//74
f 76//75 77//76 78//77
f 78//77 79//78 73//72
f 11//11 73//72 80//79
f 81//80 78//77 11//11
f 75//74 82//81 40//39
f 17//17 40//39 83//82
f 80//79 75//74 17//17
f 74//73 84//83 82//81
f 79//78 85//84 74//73
f 72//71 86//85 67//66
f 5//5 67//66 87//86
f 88//87 72//71 5//5
f 69//68 89//64 64//63
f 44//43 64//63 90//88
f 87//86 69//68 44//43
f 66//65 91//89 61//60
f 2//2 61//60 92//90
f 90//88 66//65 2//2
f 63//62 93//91 76//75
f 53//52 76//75 81//80
f 92//90 63//62 53//52
f 60//59 94//92 55//54
f 95//93 55//54 96//94
f 97//95 60//59 95//93
f 57//56 98//96 22//22
f 99//97 22//22 100//98
f 96//94 57//56 99//97
f 54//53 81//80 10//10
f 56//55 10//10 98//96
f 94//92 54//53 56//55
f 51//50 101//99 46//45
f 102//100 46//45 103//101
f 104//102 51//50 102//100
f 48//47 105//103 58//57
f 106//104 58//57 97//95
f 103//101 48//47 106//104
f 45//44 90//88 1//1
f 47//46 1//1 105//103
f 101//99 45//44 47//46
f 42//41 107//105 37//36
f 8//8 37//36 108//106
f 83//82 42//41 8//8
f 39//38 109//28 110//107
f 26//26 110//107 111//108
f 108//106 39//38 26//26
f 36//35 112//109 113//110
f 38//37 113//110 109//28
f 107//105 36//35 38//37
f 33//32 114//111 28//28
f 115//28 28//28 116//28
f 117//112 33//32 115//28
f 30//28 118//28 119//28
f 120//28 119//28 121//28
f 116//28 30//28 120//28
f 27//27 111//108 122//113
f 29//29 122//113 118//28
f 114//111 27//27 29//29
f 24//24 123//114 19//19
f 124//115 19//19 125//116
f 100//98 24//24 124//115
f 21//21 126//117 31//30
f 127//118 31//30 117//112
f 125//116 21//21 127//118
f 18//18 83//82 7//7
f 20//20 7//7 126//117
f 123//114 18//18 20//20
f 15//15 128//119 129//120
f 35//34 129//120 112//109
f 130//121 15//15 35//34
f 12//12 80//79 16//16
f 23//23 16//16 123//114
f 98//96 12//12 23//23
f 9//9 108//106 25//25
f 32//31 25//25 114//111
f 126//117 9//9 32//31
f 131//122 130//121 34//33
f 41//40 34//33 107//105
f 82//81 131//122 41//40
f 6//6 87//86 43//42
f 50//49 43//42 101//99
f 132//123 6//6 50//49
f 3//3 92//90 52//51
f 59//58 52//51 94//92
f 105//103 3//3 59//58
f 1//1 90//88 2//2
f 4//4 88//87 5//5
f 7//7 83//82 8//8
f 10//10 81//80 11//11
f 13//13 133//124 14//14
f 16//16 80//79 17//17
f 19//19 123//114 20//20
f 22//22 98//96 23//23
f 25//25 108//106 26//26
f 28//28 114//111 29//29
f 31//30 126//117 32//31
f 34//33 130//121 35//34
f 37//36 107//105 38//37
f 40//39 82//81 41//40
f 43//42 87//86 44//43
f 46//45 101//99 47//46
f 49//48 132//123 50//49
f 52//51 92//90 53//52
f 55//54 94//92 56//55
f 58//57 105//103 59//58
f 61//60 91//89 62//61
f 64//63 89//64 65//64
f 67//66 86//85 68//67
f 70//69 134//125 71//70
f 73//72 79//78 74//73
f 76//75 93//91 77//76
f 78//77 77//76 79//78
f 11//11 78//77 73//72
f 81//80 76//75 78//77
f 75//74 74//73 82//81
f 17//17 75//74 40//39
f 80//79 73//72 75//74
f 74//73 85//84 84//83
f 72//71 71//70 86//85
f 5//5 72//71 67//66
f 88//87 70//69 72//71
f 69//68 68//67 89//64
f 44//43 69//68 64//63
f 87//86 67//66 69//68
f 66//65 65//64 91//89
f 2//2 66//65 61//60
f 90//88 64//63 66//65
f 63//62 62//61 93//91
f 53//52 63//62 76//75
f 92//90 61//60 63//62
f 60//59 59//58 94//92
f 95//93 60//59 55//54
f 97//95 58//57 60//59
f 57//56 56//55 98//96
f 99//97 57//56 22//22
f 96//94 55//54 57//56
f 54//53 53//52 81//80
f 56//55 54//53 10//10
f 94//92 52//51 54//53
f 51//50 50//49 101//99
f 102//100 51//50 46//45
f 104//102 49//48 51//50
f 48//47 47//46 105//103
f 106//104 48//47 58//57
f 103//101 46//45 48//47
f 45//44 44//43 90//88
f 47//46 45//44 1//1
f 101//99 43//42 45//44
f 42//41 41//40 107//105
f 8//8 42//41 37//36
f 83//82 40//39 42//41
f 39//38 38//37 109//28
f 26//26 39//38 110//107
f 108//106 37//36 39//38
f 36//35 35//34 112//109
f 38//37 36//35 113//110
f 107//105 34//33 36//35
f 33//32 32//31 114//111
f 115//28 33//32 28//28
f 117//112 31//30 33//32
f 30//28 29//29 118//28
f 120//28 30//28 119//28
f 116//28 28//28 30//28
f 27//27 26//26 111//108
f 29//29 27//27 122//113
f 114//111 25//25 27//27
f 24//24 23//23 123//114
f 124//115 24//24 19//19
f 100//98 22//22 24//24
f 21//21 20//20 126//117
f 127//118 21//21 31//30
f 125//116 19//19 21//21
f 18//18 17//17 83//82
f 20//20 18//18 7//7
f 123//114 16//16 18//18
f 15//15 14//14 128//119
f 35//34 15//15 129//120
f 130//121 13//13 15//15
f 12//12 11//11 80//79
f 23//23 12//12 16//16
f 98//96 10//10 12//12
f 9//9 8//8 108//106
f 32//31 9//9 25//25
f 126//117 7//7 9//9
f 41//40 131//122 34//33
f 82//81 84//83 131//122
f 6//6 5//5 87//86
f 50//49 6//6 43//42
f 132//123 4//4 6//6
f 3//3 2//2 92//90
f 59//58 3//3 52//51
f 105//103 1//1 3//3
f 135//126 133//124 13//13
